<svg width="116" height="116" viewBox="0 0 116 116" fill="none" xmlns="http://www.w3.org/2000/svg">
<path d="M79.7878 111.196C84.4484 109.279 88.8358 106.759 92.8372 103.7C95.8494 101.39 98.6234 98.786 101.118 95.9272C98.8135 98.4663 96.0696 100.571 93.0175 102.141C88.7729 104.359 84.0333 105.468 79.2423 105.362C74.4512 105.257 69.7653 103.941 65.6228 101.538C63.0969 100.09 60.799 98.2777 58.8034 96.1604C58.1146 95.4471 57.4642 94.698 56.855 93.916C55.1378 91.7857 53.5782 89.5338 52.1885 87.1779C50.1992 83.7722 48.5669 80.1712 47.3175 76.4319C43.7742 65.8894 43.3833 54.5463 46.1923 43.786C46.5236 42.5277 46.8937 41.2792 47.3126 40.0356C40.346 38.627 33.1776 38.5216 26.1724 39.7247C21.9769 40.4093 17.9865 42.016 14.4903 44.4282C10.9941 46.8405 8.07951 49.9979 5.95764 53.672C3.65522 57.6429 2.34692 62.109 2.14364 66.6916C1.97293 70.4538 2.54727 74.2126 3.83388 77.7533L3.9654 78.1225C8.60101 90.6685 17.5048 101.194 29.1243 107.863C36.7463 112.259 45.2806 114.846 54.0662 115.424C62.8518 116.002 71.6529 114.555 79.7878 111.196Z" fill="url(#paint0_linear_3582_46636)"/>
<path d="M92.8624 12.8025C88.8682 9.73327 84.4855 7.20305 79.8276 5.27737C76.3193 3.83589 72.6756 2.74715 68.9506 2.02734C72.3075 2.74605 75.5071 4.06259 78.3955 5.91377C82.4395 8.47337 85.7669 12.0136 88.0668 16.2036C90.3668 20.3937 91.5642 25.0968 91.5473 29.8736C91.5529 32.7809 91.1294 35.6733 90.2905 38.4577C90.014 39.4065 89.6888 40.3404 89.3163 41.2559C88.3248 43.8029 87.1478 46.2742 85.7946 48.6499C83.8319 52.0716 81.5223 55.2834 78.9021 58.2347C71.524 66.5612 61.8774 72.5684 51.1372 75.5245C49.8805 75.8694 48.6092 76.1755 47.3184 76.4329C49.5781 83.1557 53.0716 89.4007 57.6206 94.8497C60.3134 98.1299 63.7036 100.772 67.5459 102.585C71.3882 104.398 75.5866 105.337 79.8373 105.333C84.4371 105.337 88.97 104.236 93.0524 102.122C96.4049 100.386 99.3837 98.0107 101.82 95.1315L102.074 94.8303C110.651 84.5541 115.338 71.6006 115.318 58.2299C115.323 49.4467 113.3 40.7804 109.406 32.9025C105.512 25.0247 99.851 18.147 92.8624 12.8025Z" fill="url(#paint1_linear_3582_46636)"/>
<path d="M0.908519 50.715C0.245988 55.7002 0.245988 60.7508 0.908519 65.736C1.40192 69.4893 2.27173 73.1837 3.50481 76.7638C2.4479 73.5041 1.98916 70.0811 2.15065 66.6591C2.36684 61.8555 3.79309 57.1836 6.29774 53.075C8.8024 48.9663 12.3047 45.5533 16.4812 43.1511C18.9648 41.7183 21.6492 40.6638 24.4453 40.0225C25.4104 39.81 26.3859 39.6478 27.368 39.5367C30.0963 39.1268 32.8507 38.9142 35.6097 38.9003C39.5621 38.882 43.5059 39.2711 47.3781 40.0614C58.3034 42.2741 68.3478 47.6077 76.2876 55.4127C77.2131 56.326 78.1143 57.2733 78.9813 58.2595C83.7035 52.955 87.3819 46.811 89.8242 40.1488C91.303 36.1791 91.8897 31.934 91.5429 27.7133C91.1962 23.4926 89.9244 19.3993 87.8174 15.7226C85.522 11.747 82.2987 8.38232 78.4211 5.91426C75.2397 3.8871 71.6896 2.50386 67.9728 1.84326L67.5831 1.77038C54.3574 -0.510677 40.7486 1.91734 29.1361 8.62991C21.5081 13.0137 14.9942 19.09 10.0992 26.388C5.20425 33.6861 2.05948 42.01 0.908519 50.715Z" fill="url(#paint2_linear_3582_46636)"/>
<defs>
<linearGradient id="paint0_linear_3582_46636" x1="4.93961" y1="54.8574" x2="91.5382" y2="104.813" gradientUnits="userSpaceOnUse">
<stop stop-color="#0000FF"/>
<stop offset="0.75" stop-color="#92E9FF"/>
</linearGradient>
<linearGradient id="paint1_linear_3582_46636" x1="68.8775" y1="101.627" x2="98.7549" y2="15.5268" gradientUnits="userSpaceOnUse">
<stop stop-color="#0000FF"/>
<stop offset="0.75" stop-color="#92E9FF"/>
</linearGradient>
<linearGradient id="paint2_linear_3582_46636" x1="90.3941" y1="25.4387" x2="1.16329" y2="44.5992" gradientUnits="userSpaceOnUse">
<stop stop-color="#0000FF"/>
<stop offset="0.75" stop-color="#92E9FF"/>
</linearGradient>
</defs>
</svg>
